HIERARCHY
ROOT Hips
{
	OFFSET 0.000000 35.082581 0.000000
	CHANNELS 6 Xposition Yposition Zposition Xrotation Yrotation Zrotation 
	JOINT Spine
	{
		OFFSET 0.000000 6.876099 0.125700
		CHANNELS 3 Xrotation Yrotation Zrotation
		JOINT Spine1
		{
			OFFSET 0.000000 5.730043 0.104720
			CHANNELS 3 Xrotation Yrotation Zrotation
			JOINT Spine1_split
			{
				OFFSET 0.000000 5.730043 0.104720
				CHANNELS 3 Xrotation Yrotation Zrotation
				JOINT Spine2
				{
					OFFSET 0.000000 5.730043 0.104720
					CHANNELS 3 Xrotation Yrotation Zrotation
					JOINT Neck
					{
						OFFSET 0.000000 10.314075 0.188496
						CHANNELS 3 Xrotation Yrotation Zrotation
						JOINT Head
						{
							OFFSET 0.000000 7.643700 -2.377400
							CHANNELS 3 Xrotation Yrotation Zrotation
							JOINT HeadTop_End
							{
								OFFSET 0.000000 43.788605 -13.619600
								CHANNELS 3 Xrotation Yrotation Zrotation
								End Site
								{
									OFFSET 0.000000 0.000000 0.000000
								}
							}
						}
					}
					JOINT LeftShoulder
					{
						OFFSET 2.196100 4.412489 0.087492
						CHANNELS 3 Xrotation Yrotation Zrotation
						JOINT LeftShoulder_split
						{
							OFFSET 2.196100 4.412489 0.087492
							CHANNELS 3 Xrotation Yrotation Zrotation
							JOINT LeftArm
							{
								OFFSET 8.771219 -2.981674 -0.026999
								CHANNELS 3 Xrotation Yrotation Zrotation
								JOINT LeftForeArm
								{
									OFFSET 8.512804 0.000000 -0.000000
									CHANNELS 3 Xrotation Yrotation Zrotation
									JOINT LeftHand
									{
										OFFSET 18.484802 0.000000 -0.000000
										CHANNELS 3 Xrotation Yrotation Zrotation
										JOINT LeftHandThumb1
										{
											OFFSET 2.499420 -1.158070 2.653252
											CHANNELS 3 Xrotation Yrotation Zrotation
											JOINT LeftHandThumb2
											{
												OFFSET 2.370079 -1.368366 1.368366
												CHANNELS 3 Xrotation Yrotation Zrotation
												JOINT LeftHandThumb3
												{
													OFFSET 2.676727 -1.545410 1.545409
													CHANNELS 3 Xrotation Yrotation Zrotation
													JOINT LeftHandThumb4
													{
														OFFSET 1.692226 -0.977005 0.977007
														CHANNELS 3 Xrotation Yrotation Zrotation
														End Site
														{
															OFFSET 0.000000 0.000000 0.000000
														}
													}
												}
											}
										}
										JOINT LeftHandIndex1
										{
											OFFSET 7.924831 -0.457527 2.345128
											CHANNELS 3 Xrotation Yrotation Zrotation
											JOINT LeftHandIndex2
											{
												OFFSET 3.643303 0.000000 0.000000
												CHANNELS 3 Xrotation Yrotation Zrotation
												JOINT LeftHandIndex3
												{
													OFFSET 3.810799 0.000000 0.000000
													CHANNELS 3 Xrotation Yrotation Zrotation
													JOINT LeftHandIndex4
													{
														OFFSET 2.403702 0.000000 0.000000
														CHANNELS 3 Xrotation Yrotation Zrotation
														End Site
														{
															OFFSET 0.000000 0.000000 0.000000
														}
													}
												}
											}
										}
										JOINT LeftHandMiddle1
										{
											OFFSET 8.563995 0.000000 -0.000000
											CHANNELS 3 Xrotation Yrotation Zrotation
											JOINT LeftHandMiddle2
											{
												OFFSET 3.861618 0.000000 0.000000
												CHANNELS 3 Xrotation Yrotation Zrotation
												JOINT LeftHandMiddle3
												{
													OFFSET 3.701603 0.000000 0.000000
													CHANNELS 3 Xrotation Yrotation Zrotation
													JOINT LeftHandMiddle4
													{
														OFFSET 2.322544 0.000000 0.000000
														CHANNELS 3 Xrotation Yrotation Zrotation
														End Site
														{
															OFFSET 0.000000 0.000000 0.000000
														}
													}
												}
											}
										}
										JOINT LeftHandRing1
										{
											OFFSET 8.426460 -0.424637 -3.286992
											CHANNELS 3 Xrotation Yrotation Zrotation
											JOINT LeftHandRing2
											{
												OFFSET 3.126408 0.000000 0.000000
												CHANNELS 3 Xrotation Yrotation Zrotation
												JOINT LeftHandRing3
												{
													OFFSET 3.085026 0.000000 0.000000
													CHANNELS 3 Xrotation Yrotation Zrotation
													JOINT LeftHandRing4
													{
														OFFSET 1.644005 0.000000 0.000000
														CHANNELS 3 Xrotation Yrotation Zrotation
														End Site
														{
															OFFSET 0.000000 0.000000 0.000000
														}
													}
												}
											}
										}
									}
								}
							}
						}
					}
					JOINT RightShoulder
					{
						OFFSET -2.196100 4.412496 0.070690
						CHANNELS 3 Xrotation Yrotation Zrotation
						JOINT RightShoulder_split
						{
							OFFSET -2.196100 4.412496 0.070690
							CHANNELS 3 Xrotation Yrotation Zrotation
							JOINT RightArm
							{
								OFFSET -8.771282 -2.981682 -0.094208
								CHANNELS 3 Xrotation Yrotation Zrotation
								JOINT RightForeArm
								{
									OFFSET -8.494598 0.000000 0.000000
									CHANNELS 3 Xrotation Yrotation Zrotation
									JOINT RightHand
									{
										OFFSET -18.483803 0.000000 0.000001
										CHANNELS 3 Xrotation Yrotation Zrotation
										JOINT RightHandThumb1
										{
											OFFSET -2.527351 -1.008072 2.575253
											CHANNELS 3 Xrotation Yrotation Zrotation
											JOINT RightHandThumb2
											{
												OFFSET -2.321518 -1.340328 1.340329
												CHANNELS 3 Xrotation Yrotation Zrotation
												JOINT RightHandThumb3
												{
													OFFSET -2.657753 -1.534454 1.534455
													CHANNELS 3 Xrotation Yrotation Zrotation
													JOINT RightHandThumb4
													{
														OFFSET -1.807510 -1.043568 1.043567
														CHANNELS 3 Xrotation Yrotation Zrotation
														End Site
														{
															OFFSET 0.000000 0.000000 0.000000
														}
													}
												}
											}
										}
										JOINT RightHandIndex1
										{
											OFFSET -8.811420 0.015533 2.887987
											CHANNELS 3 Xrotation Yrotation Zrotation
											JOINT RightHandIndex2
											{
												OFFSET -3.537502 0.000000 0.000000
												CHANNELS 3 Xrotation Yrotation Zrotation
												JOINT RightHandIndex3
												{
													OFFSET -3.356201 0.000000 0.000000
													CHANNELS 3 Xrotation Yrotation Zrotation
													JOINT RightHandIndex4
													{
														OFFSET -1.933098 0.000000 0.000000
														CHANNELS 3 Xrotation Yrotation Zrotation
														End Site
														{
															OFFSET 0.000000 0.000000 0.000000
														}
													}
												}
											}
										}
										JOINT RightHandMiddle1
										{
											OFFSET -8.178135 0.000000 0.000000
											CHANNELS 3 Xrotation Yrotation Zrotation
											JOINT RightHandMiddle2
											{
												OFFSET -3.901302 0.000000 0.000000
												CHANNELS 3 Xrotation Yrotation Zrotation
												JOINT RightHandMiddle3
												{
													OFFSET -3.909599 0.000000 0.000000
													CHANNELS 3 Xrotation Yrotation Zrotation
													JOINT RightHandMiddle4
													{
														OFFSET -2.376003 0.000000 0.000000
														CHANNELS 3 Xrotation Yrotation Zrotation
														End Site
														{
															OFFSET 0.000000 0.000000 0.000000
														}
													}
												}
											}
										}
										JOINT RightHandRing1
										{
											OFFSET -7.559013 0.014137 -2.865403
											CHANNELS 3 Xrotation Yrotation Zrotation
											JOINT RightHandRing2
											{
												OFFSET -3.449306 0.000000 0.000000
												CHANNELS 3 Xrotation Yrotation Zrotation
												JOINT RightHandRing3
												{
													OFFSET -3.362106 0.000000 0.000000
													CHANNELS 3 Xrotation Yrotation Zrotation
													JOINT RightHandRing4
													{
														OFFSET -2.076401 0.000000 0.000000
														CHANNELS 3 Xrotation Yrotation Zrotation
														End Site
														{
															OFFSET 0.000000 0.000000 0.000000
														}
													}
												}
											}
										}
									}
								}
							}
						}
					}
				}
			}
		}
	}
	JOINT LeftUpLeg
	{
		OFFSET 10.205400 -3.823500 0.155100
		CHANNELS 3 Xrotation Yrotation Zrotation
		JOINT LeftLeg
		{
			OFFSET 0.708757 -12.982077 0.567790
			CHANNELS 3 Xrotation Yrotation Zrotation
			JOINT LeftFoot
			{
				OFFSET -0.708756 -10.717838 -2.184338
				CHANNELS 3 Xrotation Yrotation Zrotation
				JOINT LeftToeBase
				{
					OFFSET 0.108149 -7.191104 7.560241
					CHANNELS 3 Xrotation Yrotation Zrotation
					JOINT LeftToe_End
					{
						OFFSET 0.070230 0.081724 4.490308
						CHANNELS 3 Xrotation Yrotation Zrotation
						End Site
						{
							OFFSET 0.000000 0.000000 0.000000
						}
					}
				}
			}
		}
	}
	JOINT RightUpLeg
	{
		OFFSET -10.205400 -3.823500 0.005500
		CHANNELS 3 Xrotation Yrotation Zrotation
		JOINT RightLeg
		{
			OFFSET -0.708756 -12.982134 0.610632
			CHANNELS 3 Xrotation Yrotation Zrotation
			JOINT RightFoot
			{
				OFFSET 0.708754 -10.717769 -1.945823
				CHANNELS 3 Xrotation Yrotation Zrotation
				JOINT RightToeBase
				{
					OFFSET -0.108140 -7.191069 7.372968
					CHANNELS 3 Xrotation Yrotation Zrotation
					JOINT RightToe_End
					{
						OFFSET -0.070227 0.081735 4.479403
						CHANNELS 3 Xrotation Yrotation Zrotation
						End Site
						{
							OFFSET 0.000000 0.000000 0.000000
						}
					}
				}
			}
		}
	}
}
MOTION
Frames: 5
Frame Time: 0.016667
1.380932 31.950329 0.516919 5.325094 -6.742903 -0.427955 9.204521 3.200569 4.361670 6.474931 1.246103 1.050138 0.000000 0.000000 0.000000 6.471428 1.202600 1.091238 2.140430 -0.614932 -1.384967 -3.656095 -2.727634 0.126232 0.000002 0.000000 -0.000000 1.724419 -9.915038 -14.935020 0.000000 0.000000 0.000000 -25.063150 2.043308 -69.542186 0.000011 -31.031284 -0.000000 13.812954 3.247829 3.605258 -6.000713 -6.126823 4.616755 7.611078 24.884958 2.404798 -4.383186 25.960694 19.454349 -0.000005 -0.000002 -0.000000 0.627449 4.865872 -25.301806 0.596884 2.578227 -26.066015 0.209948 1.555817 -15.369519 0.000000 -0.000000 -0.000002 0.227903 3.736622 -13.565777 0.647511 2.679131 -27.169734 0.040240 0.686113 -6.710908 -0.000001 0.000000 0.000002 0.497527 4.571310 -22.150790 0.640353 2.665135 -27.016052 0.462536 2.283469 -22.899432 -0.000000 -0.000002 -0.000005 4.830922 17.858064 5.566065 0.000000 0.000000 0.000000 -15.198233 0.576466 66.754997 -0.000007 21.881882 0.000015 11.551368 9.546658 1.170283 -7.540292 -3.885174 -4.751894 7.955438 -28.077811 -3.121231 -4.006980 -18.468401 -17.389984 -0.000000 -0.000000 -0.000000 0.082421 -1.088631 14.291451 0.320863 -1.700385 21.371539 0.152996 -1.185062 14.710390 -0.000002 -0.000001 0.000001 0.522792 -4.330219 26.060464 0.321186 -1.701152 21.381528 0.457696 -2.015189 25.590260 0.000001 0.000001 -0.000000 2.075019 -6.645777 34.808905 0.321866 -1.702912 21.404863 0.457736 -2.015235 25.590733 -0.000001 -0.000002 0.000001 -34.168578 8.414758 20.322487 70.846711 3.279106 -1.900843 -6.638462 11.860585 -15.800794 -30.670421 0.000045 0.000018 0.000000 0.000003 0.000000 -30.141266 -5.237373 3.093534 47.464760 -1.128675 -0.945245 -24.910724 -5.916808 -2.874514 6.842157 -0.000021 -0.004218 -0.000000 0.000002 -0.000000 
1.334279 31.988819 0.572187 5.345434 -6.749409 -0.204476 9.196506 3.208136 4.366615 6.470723 1.252375 1.050136 0.000000 0.000000 0.000000 6.467351 1.205347 1.091238 2.140428 -0.627687 -1.373676 -3.654016 -2.810159 -0.098614 0.000001 0.000000 -0.000001 1.719455 -9.903881 -14.934634 0.000000 0.000000 0.000000 -24.909457 1.975394 -69.518499 -0.000004 -31.046253 -0.000006 13.575640 3.329219 3.235270 -6.000713 -6.126817 4.616756 7.611075 24.884954 2.404795 -4.383187 25.960688 19.454348 -0.000002 0.000003 -0.000003 0.631456 4.874258 -25.392816 0.600967 2.586570 -26.156879 0.212428 1.564778 -15.460266 0.000000 -0.000000 0.000001 0.229971 3.745033 -13.650467 0.651204 2.686322 -27.248780 0.041122 0.693603 -6.784538 0.000002 0.000001 0.000001 0.500616 4.578783 -22.229928 0.643779 2.671854 -27.089842 0.465294 2.289956 -22.968319 0.000002 0.000001 0.000001 4.818734 17.839438 5.583537 0.000000 0.000000 0.000000 -15.265580 -0.058674 66.673827 0.000008 21.871306 -0.000008 12.264136 9.590652 0.896124 -7.540286 -3.885167 -4.751893 7.955439 -28.077813 -3.121233 -4.006978 -18.468400 -17.389984 0.000003 -0.000000 -0.000000 0.081302 -1.093028 14.345788 0.324221 -1.708926 21.484205 0.155321 -1.193926 14.822989 0.000000 0.000001 0.000001 0.524616 -4.333901 26.110821 0.324043 -1.708454 21.477924 0.460867 -2.021772 25.679867 -0.000003 -0.000001 0.000001 2.078610 -6.647923 34.855828 0.324542 -1.709714 21.494464 0.460666 -2.021340 25.674186 -0.000001 -0.000002 -0.000000 -34.630787 9.633602 20.702889 70.217691 3.799182 -1.982940 -6.477167 10.353951 -15.514524 -30.423196 0.000043 0.000017 0.000000 0.000002 0.000000 -30.097430 -5.196315 2.877084 47.448132 -1.448283 -0.934895 -24.919078 -5.535999 -2.741287 6.685714 -0.000012 -0.004154 0.000000 0.000003 -0.000000 
1.249922 32.038609 0.670397 5.371683 -6.725920 0.091186 9.173434 3.227983 4.371874 6.458230 1.270574 1.050139 0.000000 0.000000 0.000000 6.454843 1.219981 1.086651 2.140431 -0.658715 -1.366251 -3.626630 -2.970674 -0.373948 -0.000002 -0.000000 -0.000000 1.707817 -9.871304 -14.933485 0.000000 0.000000 0.000000 -24.720377 1.875878 -69.543395 -0.000016 -31.071811 -0.000036 13.451211 3.530285 2.736905 -6.000713 -6.126815 4.616759 7.611075 24.884956 2.404800 -4.383188 25.960687 19.454351 -0.000000 0.000002 -0.000004 0.643160 4.898770 -25.658652 0.613032 2.610901 -26.422279 0.219720 1.590921 -15.725307 -0.000002 -0.000002 -0.000000 0.235983 3.769631 -13.897920 0.662093 2.707304 -27.479828 0.043763 0.715501 -6.999813 -0.000001 0.000002 0.000002 0.509587 4.600640 -22.461181 0.653886 2.691477 -27.305542 0.473385 2.308933 -23.169805 0.000001 0.000001 -0.000001 4.783130 17.784920 5.634562 0.000000 0.000000 0.000000 -15.255308 -0.756977 66.514486 -0.000013 21.916159 -0.000001 12.968081 9.611773 0.635155 -7.540291 -3.885172 -4.751895 7.955438 -28.077811 -3.121233 -4.006981 -18.468405 -17.389986 0.000001 0.000001 -0.000002 0.084244 -1.104391 14.506161 0.334185 -1.734018 21.815998 0.162310 -1.220011 15.154641 0.000000 0.000001 0.000003 0.529939 -4.344721 26.259328 0.332576 -1.729971 21.762204 0.470236 -2.041124 25.944262 -0.000000 0.000001 -0.000001 2.089157 -6.654229 34.994228 0.332501 -1.729717 21.758899 0.469390 -2.039386 25.920558 -0.000000 -0.000001 0.000000 -35.336387 9.886039 20.001842 69.469069 4.474436 -2.018869 -6.306815 8.678950 -14.922008 -29.717074 0.000048 0.000026 0.000000 -0.000001 0.000000 -29.837712 -5.137671 2.672955 47.467233 -1.827190 -0.931181 -25.244468 -5.124848 -2.640079 6.694519 0.000001 -0.004172 0.000000 0.000003 -0.000000 
1.120415 32.099869 0.803746 5.402305 -6.678409 0.442988 9.135663 3.261058 4.374978 6.437244 1.301643 1.047209 0.000000 0.000000 0.000000 6.434244 1.243750 1.079202 2.140438 -0.705677 -1.362461 -3.574624 -3.199441 -0.688517 0.000001 -0.000000 0.000000 1.689943 -9.818026 -14.926627 0.000000 0.000000 0.000000 -24.496747 1.749469 -69.601485 0.000004 -31.094819 -0.000004 13.416812 3.707234 2.149842 -6.000710 -6.126822 4.616757 7.611072 24.884958 2.404800 -4.383189 25.960688 19.454344 -0.000003 0.000001 -0.000002 0.662387 4.938235 -26.088514 0.632699 2.650130 -26.851378 0.231779 1.633121 -16.153877 0.000002 -0.000000 -0.000002 0.245989 3.809344 -14.298175 0.679845 2.741157 -27.853674 0.048230 0.750924 -7.348258 0.000003 0.000001 0.000002 0.524367 4.635906 -22.835375 0.670369 2.723149 -27.654693 0.486616 2.339581 -23.495999 -0.000000 0.000000 -0.000002 4.725673 17.696592 5.717001 0.000000 0.000000 0.000000 -15.174723 -1.506016 66.289943 0.000027 21.983640 -0.000013 13.660418 9.640877 0.382068 -7.540291 -3.885174 -4.751898 7.955441 -28.077811 -3.121232 -4.006989 -18.468403 -17.389986 0.000002 0.000001 -0.000002 0.089121 -1.122874 14.767902 0.350774 -1.774862 22.357634 0.174032 -1.262499 15.696007 -0.000000 -0.000000 0.000001 0.538741 -4.362381 26.501887 0.346745 -1.765038 22.227078 0.485759 -2.072720 26.376860 -0.000001 -0.000002 0.000000 2.106487 -6.664475 35.220506 0.345641 -1.762347 22.191539 0.483858 -2.068866 26.323964 0.000001 -0.000001 -0.000000 -36.087557 10.388101 18.761741 68.269612 4.913266 -2.046992 -6.390535 6.930686 -13.981787 -28.605406 0.000031 0.000010 0.000000 0.000003 0.000000 -29.443853 -5.085247 2.515392 47.445591 -2.269136 -0.933550 -25.681834 -4.676637 -2.593587 6.707834 -0.000022 -0.004179 0.000000 -0.000000 0.000000 
0.990837 32.163940 0.970266 5.435770 -6.611968 0.836813 9.083804 3.307062 4.376808 6.408335 1.343091 1.038724 0.000000 0.000000 0.000000 6.405872 1.274518 1.063854 2.140438 -0.766235 -1.362488 -3.498519 -3.486841 -1.029327 0.000001 0.000001 -0.000000 1.665933 -9.745088 -14.916937 0.000000 0.000000 0.000000 -24.239269 1.601060 -69.677164 0.000005 -31.120872 0.000004 13.466441 3.907412 1.467204 -6.000708 -6.126817 4.616758 7.611079 24.884956 2.404794 -4.383183 25.960687 19.454353 -0.000000 0.000001 -0.000002 0.688944 4.991562 -26.671604 0.659890 2.703092 -27.433477 0.248626 1.690206 -16.735155 0.000002 -0.000001 0.000002 0.259986 3.863131 -14.841347 0.704341 2.786927 -28.361201 0.054631 0.798983 -7.821416 0.000002 0.000001 0.000003 0.544793 4.683639 -23.343333 0.693073 2.765998 -28.128852 0.504843 2.381077 -23.939101 -0.000001 -0.000002 -0.000003 4.647977 17.576334 5.828746 0.000000 0.000000 0.000000 -15.030448 -2.293392 66.012979 0.000005 22.078576 -0.000008 14.337134 9.672010 0.139472 -7.540291 -3.885173 -4.751893 7.955439 -28.077811 -3.121227 -4.006976 -18.468403 -17.389979 0.000000 -0.000002 -0.000000 0.095897 -1.148088 15.126600 0.374115 -1.830577 23.099754 0.190760 -1.320537 16.437808 0.000001 -0.000001 0.000001 0.550901 -4.386531 26.834548 0.366678 -1.813000 22.865132 0.507485 -2.115926 26.971104 -0.000000 -0.000001 0.000002 2.130296 -6.678429 35.531109 0.364175 -1.807055 22.785830 0.504067 -2.109196 26.878456 -0.000000 -0.000002 0.000002 -36.737323 10.935503 17.401375 66.533740 5.336392 -2.076593 -6.604358 5.250620 -12.879898 -27.141563 0.000024 0.000016 0.000000 0.000000 -0.000000 -28.978608 -5.003590 2.310174 47.456639 -2.726622 -0.934591 -26.230442 -4.233986 -2.514612 6.725778 -0.000011 -0.004227 0.000000 -0.000001 0.000000 
